<svg xmlns="http://www.w3.org/2000/svg" width="1000" height="640" viewBox="0 0 1000 640"><rect width="1000" height="640" fill="#f8fafc"/><rect width="1000" height="86" fill="#0f172a"/><text x="34" y="38" fill="#fff" font-family="Arial" font-size="30" font-weight="700">Capitulo 20 - vasos y circulacion</text><text x="34" y="65" fill="#cbd5e1" font-family="Arial" font-size="18">Pared vascular, capilares, presion y retorno venoso</text><rect x="45" y="120" width="910" height="450" rx="22" fill="#fff" stroke="#cbd5e1" stroke-width="2"/><line x1="690" y1="240" x2="845" y2="240" stroke="#94a3b8" stroke-width="4"/><line x1="845" y1="240" x2="240" y2="435" stroke="#94a3b8" stroke-width="4"/><line x1="240" y1="435" x2="410" y2="435" stroke="#94a3b8" stroke-width="4"/><line x1="410" y1="435" x2="590" y2="435" stroke="#94a3b8" stroke-width="4"/><circle cx="150" cy="240" r="17" fill="#2563eb" stroke="#fff" stroke-width="3"/><text x="150" y="246" text-anchor="middle" fill="#fff" font-family="Arial" font-size="16" font-weight="700">1</text><text x="150" y="282" text-anchor="middle" fill="#0f172a" font-family="Arial" font-size="17">Tunica intima</text><circle cx="320" cy="240" r="17" fill="#0d9488" stroke="#fff" stroke-width="3"/><text x="320" y="246" text-anchor="middle" fill="#fff" font-family="Arial" font-size="16" font-weight="700">2</text><text x="320" y="282" text-anchor="middle" fill="#0f172a" font-family="Arial" font-size="17">Tunica media</text><circle cx="490" cy="240" r="17" fill="#d97706" stroke="#fff" stroke-width="3"/><text x="490" y="246" text-anchor="middle" fill="#fff" font-family="Arial" font-size="16" font-weight="700">3</text><text x="490" y="282" text-anchor="middle" fill="#0f172a" font-family="Arial" font-size="17">Tunica externa</text><circle cx="690" cy="240" r="17" fill="#e11d48" stroke="#fff" stroke-width="3"/><text x="690" y="246" text-anchor="middle" fill="#fff" font-family="Arial" font-size="16" font-weight="700">4</text><text x="690" y="282" text-anchor="middle" fill="#0f172a" font-family="Arial" font-size="17">Arteriola</text><circle cx="845" cy="240" r="17" fill="#16a34a" stroke="#fff" stroke-width="3"/><text x="845" y="246" text-anchor="middle" fill="#fff" font-family="Arial" font-size="16" font-weight="700">5</text><text x="845" y="282" text-anchor="middle" fill="#0f172a" font-family="Arial" font-size="17">Capilar</text><circle cx="240" cy="435" r="17" fill="#7c3aed" stroke="#fff" stroke-width="3"/><text x="240" y="441" text-anchor="middle" fill="#fff" font-family="Arial" font-size="16" font-weight="700">6</text><text x="240" y="477" text-anchor="middle" fill="#0f172a" font-family="Arial" font-size="17">Venula</text><circle cx="410" cy="435" r="17" fill="#0891b2" stroke="#fff" stroke-width="3"/><text x="410" y="441" text-anchor="middle" fill="#fff" font-family="Arial" font-size="16" font-weight="700">7</text><text x="410" y="477" text-anchor="middle" fill="#0f172a" font-family="Arial" font-size="17">Valvula venosa</text><circle cx="590" cy="435" r="17" fill="#be123c" stroke="#fff" stroke-width="3"/><text x="590" y="441" text-anchor="middle" fill="#fff" font-family="Arial" font-size="16" font-weight="700">8</text><text x="590" y="477" text-anchor="middle" fill="#0f172a" font-family="Arial" font-size="17">Bomba muscular</text><circle cx="760" cy="435" r="17" fill="#2563eb" stroke="#fff" stroke-width="3"/><text x="760" y="441" text-anchor="middle" fill="#fff" font-family="Arial" font-size="16" font-weight="700">9</text><text x="760" y="477" text-anchor="middle" fill="#0f172a" font-family="Arial" font-size="17">Intercambio capilar</text></svg>